# xmcd
# Track frame offsets:
# 150
# 12897
# 23693
# 35464
# 47010
# 57057
# 69653
# 80374
# 91321
# 102944
# 115166
# 127014
# 137586
# 150858
# 171930
#
# Disc length: 2447 seconds
# Revision: 0
# Processed by: cddbd v1.5.2PL0 Copyright (c) Steve Scherf et al.
# Submitted via: VisiTrax 2.11.2.271 - For more info visit www.synapsa.com
#
DISCID=b4098d0f
DTITLE=Various Artist - Classic Country 1960-1964 Disc 2
DYEAR=1997
DGENRE=Country
TTITLE0=Patsy Cline - I Fall To Pieces
TTITLE1=Faron Young - Hello Walls
TTITLE2=Jim Reeves - Welcome To My World
TTITLE3=Don Gibson - Sea Of Heartbreak
TTITLE4=George Hamilton IV - Abilene
TTITLE5=Bobby Bare - Detroit City
TTITLE6=Dave Dudley - Six Days On The Road
TTITLE7=Buck Owens - My Heart Skips A Beat
TTITLE8=George Jones - She Thinks I Still Care
TTITLE9=Roy Drusky - Three Hearts In A Tangle
TTITLE10=Skeeter Davis - The End Of The World
TTITLE11=Connie Smith - Once A Day
TTITLE12=Carl Butler - Don't Let Me Cross Over
TTITLE13=Marty Robbins - El Paso
TTITLE14=The Everly Brothers - Cathy's Clown
EXTD=YEAR: 1997
EXTT0=
EXTT1=
EXTT2=
EXTT3=
EXTT4=
EXTT5=
EXTT6=
EXTT7=
EXTT8=
EXTT9=
EXTT10=
EXTT11=
EXTT12=
EXTT13=
EXTT14=
PLAYORDER=
